Coordinates
version=1
nRows=31
nColumns=38
inDegrees=no

Units are S.I. units (second, meters, Newtons, ...)
If the header above contains a line with 'inDegrees', this indicates whether rotational values are in degrees (yes) or radians (no).

endheader
time	pelvis_tilt	pelvis_list	pelvis_rotation	pelvis_tx	pelvis_ty	pelvis_tz	hip_flexion_r	hip_adduction_r	hip_rotation_r	knee_angle_r	ankle_angle_r	subtalar_angle_r	mtp_angle_r	hip_flexion_l	hip_adduction_l	hip_rotation_l	knee_angle_l	ankle_angle_l	subtalar_angle_l	mtp_angle_l	lumbar_extension	lumbar_bending	lumbar_rotation	arm_flex_r	arm_add_r	arm_rot_r	elbow_flex_r	pro_sup_r	wrist_flex_r	wrist_dev_r	arm_flex_l	arm_add_l	arm_rot_l	elbow_flex_l	pro_sup_l	wrist_flex_l	wrist_dev_l
1.33	0.695646	1.39329	-2.14032	0.560009	0.306381	1.0463	-0.217132	-0.229573	-0.0287222	0.892544	-0.518432	0	0	0.0349905	0.0404912	-0.0722972	0.318636	-0.209951	0	0	-0.49169	-0.0634494	0.171631	0.134306	-0.498662	1.03077	0.597184	0.536332	0	0	0.199733	-0.267603	0.754688	0.452288	0.828127	0	0
1.34	0.668832	1.3902	-2.1111	0.564964	0.296205	1.04841	-0.20291	-0.229414	-0.0190604	0.926414	-0.5589	0	0	0.0172905	0.0427429	-0.0814426	0.318044	-0.207777	0	0	-0.494569	-0.058066	0.169916	0.132174	-0.50348	1.02979	0.600484	0.537984	0	0	0.199192	-0.264432	0.75862	0.45063	0.825112	0	0
1.35	0.638016	1.38811	-2.0776	0.569784	0.286233	1.05034	-0.187181	-0.226455	-0.00861707	0.960519	-0.596553	0	0	-0.00016337	0.0442376	-0.086706	0.316187	-0.204241	0	0	-0.496744	-0.0512085	0.168673	0.129841	-0.508758	1.02844	0.604697	0.538906	0	0	0.198849	-0.26159	0.762936	0.449678	0.822832	0	0
1.36	0.604493	1.38734	-2.04134	0.574356	0.276397	1.05205	-0.169259	-0.220372	0.00325003	0.994911	-0.628385	0	0	-0.0160577	0.0443335	-0.0877794	0.313899	-0.200439	0	0	-0.49764	-0.043254	0.167886	0.127519	-0.513618	1.02703	0.608694	0.539508	0	0	0.198405	-0.259155	0.766795	0.44929	0.821357	0	0
1.37	0.569572	1.38766	-2.004	0.578648	0.266672	1.05355	-0.148889	-0.211591	0.0167106	1.02904	-0.661562	0	0	-0.0300535	0.0427921	-0.0857523	0.31152	-0.196331	0	0	-0.497354	-0.0347361	0.167956	0.124936	-0.51851	1.02537	0.613259	0.540148	0	0	0.198093	-0.257188	0.770904	0.449487	0.819985	0	0
1.38	0.534625	1.38844	-1.96713	0.58263	0.257078	1.05495	-0.126866	-0.200422	0.0324155	1.06235	-0.690436	0	0	-0.0423328	0.0394952	-0.0829014	0.310005	-0.192889	0	0	-0.496566	-0.0264183	0.168542	0.122609	-0.522957	1.02345	0.617787	0.540727	0	0	0.197854	-0.256022	0.774692	0.450754	0.818673	0	0
1.39	0.501951	1.38854	-1.93324	0.58626	0.247549	1.05642	-0.105148	-0.187811	0.0494378	1.09388	-0.698132	0	0	-0.0545713	0.0354353	-0.0818628	0.308441	-0.190665	0	0	-0.496417	-0.0194003	0.16932	0.120785	-0.526384	1.02098	0.621806	0.541334	0	0	0.197791	-0.255914	0.778154	0.45309	0.817313	0	0
1.4	0.471819	1.38753	-1.90275	0.589553	0.237982	1.05804	-0.0848925	-0.17452	0.0659447	1.12276	-0.698132	0	0	-0.0683317	0.0312586	-0.0840215	0.30604	-0.189145	0	0	-0.49753	-0.0138668	0.170448	0.118976	-0.529145	1.01704	0.626063	0.542921	0	0	0.198141	-0.256834	0.782191	0.456211	0.814668	0	0
1.41	0.443544	1.38554	-1.87458	0.592672	0.228407	1.05974	-0.0660901	-0.160714	0.0815187	1.15007	-0.66716	0	0	-0.0839763	0.0274516	-0.0883276	0.302904	-0.188036	0	0	-0.499607	-0.00919201	0.171433	0.117318	-0.531325	1.01207	0.630132	0.545725	0	0	0.198707	-0.258186	0.786108	0.459383	0.81066	0	0
1.42	0.41746	1.38377	-1.84891	0.595713	0.218881	1.06132	-0.0466283	-0.147018	0.0959571	1.17554	-0.626455	0	0	-0.100148	0.0238928	-0.0935887	0.299984	-0.185522	0	0	-0.50143	-0.00484552	0.172058	0.116531	-0.533164	1.00868	0.633587	0.547553	0	0	0.199037	-0.259278	0.788372	0.461785	0.807547	0	0
1.43	0.392131	1.3824	-1.82425	0.598656	0.209509	1.06273	-0.026161	-0.133423	0.109213	1.19729	-0.588054	0	0	-0.116058	0.020389	-0.0997049	0.297031	-0.182293	0	0	-0.503201	-0.000524546	0.172405	0.116851	-0.534841	1.00704	0.636565	0.54839	0	0	0.199486	-0.259838	0.789245	0.463045	0.805447	0	0
1.44	0.36507	1.38062	-1.79771	0.601492	0.200312	1.06418	-0.00556734	-0.119859	0.120562	1.21388	-0.560178	0	0	-0.13246	0.0164266	-0.1054	0.2932	-0.180165	0	0	-0.506061	0.00410587	0.172363	0.118613	-0.536165	1.00734	0.638731	0.548453	0	0	0.200533	-0.259905	0.789425	0.463214	0.804624	0	0
1.45	0.339363	1.37923	-1.77283	0.604144	0.191262	1.06554	0.0154366	-0.106744	0.130408	1.22647	-0.52234	0	0	-0.14833	0.0124252	-0.110544	0.28813	-0.178703	0	0	-0.509507	0.00843757	0.172406	0.121269	-0.537553	1.00818	0.641147	0.54794	0	0	0.202219	-0.25961	0.788944	0.462677	0.804233	0	0
1.46	0.314942	1.37833	-1.74932	0.606683	0.182361	1.06687	0.0368049	-0.094443	0.13812	1.23409	-0.490083	0	0	-0.163493	0.00850403	-0.115098	0.281575	-0.178979	0	0	-0.513148	0.0125693	0.172353	0.124913	-0.538331	1.00948	0.642428	0.54752	0	0	0.204701	-0.258787	0.788287	0.46101	0.804297	0	0
1.47	0.292077	1.37846	-1.72751	0.609104	0.173578	1.06805	0.0589871	-0.0827939	0.144557	1.23818	-0.453056	0	0	-0.177169	0.004507	-0.120431	0.274435	-0.180383	0	0	-0.516311	0.0165962	0.172364	0.129202	-0.538952	1.01118	0.643309	0.547109	0	0	0.207731	-0.257512	0.787204	0.458545	0.804859	0	0
1.48	0.271355	1.37967	-1.70728	0.611506	0.164922	1.06901	0.0820644	-0.0723584	0.148578	1.23796	-0.422351	0	0	-0.188811	0.000663034	-0.126184	0.268424	-0.181714	0	0	-0.518416	0.020542	0.17205	0.13365	-0.539283	1.01303	0.643747	0.54692	0	0	0.211152	-0.256182	0.786331	0.455804	0.805407	0	0
1.49	0.251421	1.38244	-1.68772	0.613839	0.156307	1.06963	0.106505	-0.0624883	0.151316	1.23382	-0.39116	0	0	-0.198279	-0.00323377	-0.132822	0.263289	-0.182575	0	0	-0.518901	0.0246325	0.171584	0.138141	-0.539529	1.01499	0.64404	0.546832	0	0	0.214334	-0.254733	0.785234	0.452845	0.806231	0	0
1.5	0.232014	1.38555	-1.6691	0.616113	0.147708	1.07003	0.130885	-0.0537052	0.152833	1.22502	-0.366319	0	0	-0.207392	-0.00656205	-0.138768	0.258476	-0.182434	0	0	-0.518741	0.0285962	0.171368	0.142558	-0.539846	1.01699	0.644137	0.546645	0	0	0.21714	-0.253284	0.784411	0.450042	0.807288	0	0
1.51	0.212527	1.38878	-1.65108	0.618267	0.139253	1.07026	0.155183	-0.0456838	0.154006	1.21213	-0.347984	0	0	-0.216135	-0.009518	-0.144339	0.254359	-0.181605	0	0	-0.518544	0.0323769	0.171583	0.147258	-0.540602	1.01912	0.644631	0.546207	0	0	0.220088	-0.251814	0.783915	0.447401	0.808265	0	0
1.52	0.194153	1.39217	-1.63471	0.620261	0.13094	1.07029	0.179188	-0.038381	0.155031	1.1955	-0.332924	0	0	-0.224231	-0.0120155	-0.149933	0.25099	-0.180059	0	0	-0.518298	0.035675	0.172287	0.152131	-0.541583	1.02138	0.645331	0.545247	0	0	0.223147	-0.250315	0.783317	0.444922	0.809431	0	0
1.53	0.178515	1.39585	-1.62106	0.622109	0.122676	1.07014	0.202681	-0.0320521	0.155431	1.1754	-0.320802	0	0	-0.231548	-0.0139472	-0.154968	0.248147	-0.177978	0	0	-0.517891	0.0381757	0.173169	0.156966	-0.542314	1.02365	0.645756	0.543986	0	0	0.226183	-0.248866	0.782018	0.442656	0.810112	0	0
1.54	0.166723	1.39964	-1.61243	0.623599	0.114505	1.0698	0.225927	-0.0262084	0.157159	1.15317	-0.31046	0	0	-0.238556	-0.0150313	-0.16051	0.245639	-0.17563	0	0	-0.517439	0.0391616	0.174935	0.162041	-0.54282	1.0262	0.646104	0.54264	0	0	0.229168	-0.247901	0.78033	0.441323	0.810528	0	0
1.55	0.156503	1.40377	-1.60466	0.625178	0.10622	1.06931	0.247816	-0.0217354	0.157489	1.12826	-0.300665	0	0	-0.244997	-0.0156823	-0.164955	0.24332	-0.17311	0	0	-0.51646	0.0401087	0.176121	0.166728	-0.543156	1.02855	0.646179	0.541224	0	0	0.23182	-0.247024	0.778519	0.440335	0.811019	0	0
1.56	0.146514	1.40809	-1.59622	0.626852	0.0978585	1.06869	0.26793	-0.0184524	0.156545	1.10058	-0.290759	0	0	-0.251061	-0.0162283	-0.167649	0.241372	-0.170153	0	0	-0.514958	0.0413567	0.176552	0.171169	-0.54355	1.03078	0.646277	0.539992	0	0	0.234203	-0.246169	0.776601	0.439454	0.811713	0	0
1.57	0.136984	1.41245	-1.58771	0.628505	0.0894766	1.06794	0.286128	-0.0159621	0.15555	1.07029	-0.280014	0	0	-0.256867	-0.0167109	-0.16926	0.239913	-0.166502	0	0	-0.513077	0.0427099	0.176498	0.175409	-0.54414	1.03289	0.646774	0.53876	0	0	0.236361	-0.245503	0.774551	0.438959	0.812769	0	0
1.58	0.128396	1.41665	-1.57977	0.630164	0.081067	1.06709	0.302178	-0.0141847	0.155033	1.03758	-0.268449	0	0	-0.262641	-0.0170745	-0.170357	0.238952	-0.162246	0	0	-0.511135	0.0441292	0.175976	0.179548	-0.544995	1.03499	0.647644	0.537467	0	0	0.238234	-0.24483	0.771848	0.438694	0.814129	0	0
1.59	0.120531	1.42055	-1.57214	0.631876	0.0725921	1.06619	0.315641	-0.0131542	0.154701	1.00168	-0.256374	0	0	-0.26861	-0.017306	-0.171179	0.238111	-0.157802	0	0	-0.509406	0.0456961	0.174872	0.18367	-0.546083	1.03725	0.648755	0.536344	0	0	0.23979	-0.244125	0.768643	0.438368	0.816297	0	0
1.6	0.113892	1.42416	-1.56532	0.633635	0.0640039	1.06523	0.326745	-0.0129373	0.153991	0.96314	-0.245567	0	0	-0.274827	-0.0173934	-0.171919	0.23712	-0.154314	0	0	-0.507924	0.0472041	0.173487	0.187438	-0.547138	1.03918	0.649766	0.535665	0	0	0.241346	-0.24335	0.766175	0.437714	0.818394	0	0
1.61	0.105059	1.42731	-1.55566	0.635482	0.055283	1.06428	0.33418	-0.0128616	0.152662	0.918502	-0.234913	0	0	-0.281491	-0.0180202	-0.17244	0.236439	-0.149843	0	0	-0.507083	0.04939	0.171444	0.191362	-0.548293	1.04157	0.650702	0.534826	0	0	0.242488	-0.241892	0.761893	0.436164	0.821415	0	0
1.62	0.0988442	1.43027	-1.54832	0.637336	0.0464299	1.06319	0.340522	-0.0133685	0.150118	0.873868	-0.227668	0	0	-0.288371	-0.0183961	-0.173066	0.236143	-0.145512	0	0	-0.506147	0.0512341	0.169067	0.194862	-0.549344	1.0439	0.651607	0.533895	0	0	0.24315	-0.240319	0.756451	0.434534	0.824742	0	0
1.63	0.0948053	1.43383	-1.54305	0.639146	0.0374415	1.0619	0.346613	-0.0143428	0.146709	0.827948	-0.222087	0	0	-0.294488	-0.0185916	-0.173774	0.236406	-0.14109	0	0	-0.504368	0.0527076	0.166486	0.198058	-0.55014	1.04619	0.652231	0.533392	0	0	0.243407	-0.23893	0.750937	0.432962	0.828041	0	0
